<svg width="26" height="26" viewBox="0 0 26 26" fill="none" xmlns="http://www.w3.org/2000/svg">
<path d="M9.2178 7.40089C9.2178 3.8667 5.90209 1.60481 5.76072 1.51485C5.5482 1.3712 5.29755 1.29444 5.04103 1.29444C4.78451 1.29444 4.53386 1.3712 4.32134 1.51485C4.17997 1.61767 0.864258 3.8667 0.864258 7.40089C0.864258 8.50864 1.30431 9.57102 2.08761 10.3543C2.8709 11.1376 3.93328 11.5777 5.04103 11.5777C6.14878 11.5777 7.21116 11.1376 7.99446 10.3543C8.77775 9.57102 9.2178 8.50864 9.2178 7.40089ZM5.04103 9.00734C4.61497 9.00734 4.20637 8.83809 3.9051 8.53682C3.60383 8.23556 3.43458 7.82695 3.43458 7.40089C3.54034 6.1824 4.11655 5.05302 5.04103 4.25225C5.97102 5.04869 6.54847 6.18048 6.64748 7.40089C6.64748 7.82695 6.47823 8.23556 6.17696 8.53682C5.8757 8.83809 5.46709 9.00734 5.04103 9.00734ZM12.8291 10.511C12.6166 10.3673 12.3659 10.2906 12.1094 10.2906C11.8529 10.2906 11.6023 10.3673 11.3897 10.511C11.1712 10.6652 6.0049 14.2379 6.0049 19.6099C6.0049 21.2289 6.64806 22.7816 7.79287 23.9265C8.93769 25.0713 10.4904 25.7144 12.1094 25.7144C13.7284 25.7144 15.2811 25.0713 16.426 23.9265C17.5708 22.7816 18.2139 21.2289 18.2139 19.6099C18.2139 14.148 13.0733 10.6523 12.8291 10.511ZM12.1094 23.1441C11.6453 23.1441 11.1857 23.0527 10.7569 22.8751C10.3282 22.6975 9.93855 22.4372 9.61037 22.109C9.28219 21.7808 9.02186 21.3912 8.84425 20.9624C8.66664 20.5336 8.57522 20.074 8.57522 19.6099C8.57522 16.6412 10.9014 14.2508 12.1223 13.1841C13.3303 14.1994 15.6436 16.5641 15.6436 19.6099C15.6436 20.074 15.5522 20.5336 15.3746 20.9624C15.197 21.3912 14.9367 21.7808 14.6085 22.109C14.2803 22.4372 13.8907 22.6975 13.4619 22.8751C13.0331 23.0527 12.5735 23.1441 12.1094 23.1441ZM20.8614 0.229692C20.6488 0.086042 20.3982 0.00927734 20.1417 0.00927734C19.8852 0.00927734 19.6345 0.086042 19.422 0.229692C19.2421 0.358208 15.001 3.28838 15.001 7.72218C15.001 9.08556 15.5426 10.3931 16.5067 11.3572C17.4707 12.3212 18.7783 12.8628 20.1417 12.8628C21.5051 12.8628 22.8126 12.3212 23.7767 11.3572C24.7407 10.3931 25.2823 9.08556 25.2823 7.72218C25.2823 3.23697 21.0413 0.345357 20.8614 0.229692ZM20.1417 10.2925C19.46 10.2925 18.8062 10.0217 18.3242 9.53967C17.8422 9.05764 17.5714 8.40387 17.5714 7.72218C17.6594 6.79419 17.9322 5.89318 18.3736 5.07216C18.815 4.25113 19.4162 3.52667 20.1417 2.94138C20.8699 3.52417 21.4729 4.24803 21.9146 5.06954C22.3563 5.89105 22.6275 6.7933 22.712 7.72218C22.712 8.40387 22.4412 9.05764 21.9592 9.53967C21.4771 10.0217 20.8234 10.2925 20.1417 10.2925Z" fill="black"/>
</svg>
