<svg width="27" height="28" viewBox="0 0 27 28" fill="none" xmlns="http://www.w3.org/2000/svg">
<path d="M2.04913 11.0507C1.69124 11.0507 1.34801 10.9086 1.09494 10.6555C0.841878 10.4024 0.699707 10.0592 0.699707 9.70131C0.699707 9.34342 0.841878 9.00019 1.09494 8.74712C1.34801 8.49406 1.69124 8.35189 2.04913 8.35189H12.8445C13.5603 8.35189 14.2467 8.06755 14.7528 7.56142C15.259 7.05528 15.5433 6.36882 15.5433 5.65305C15.5433 4.93727 15.259 4.25081 14.7528 3.74468C14.2467 3.23855 13.5603 2.95421 12.8445 2.95421C12.1023 2.95421 11.4276 3.25108 10.9418 3.75037C10.819 3.88143 10.6706 3.98589 10.5058 4.05731C10.341 4.12873 10.1633 4.16558 9.98371 4.16558C9.80411 4.16558 9.62641 4.12873 9.46162 4.05731C9.29682 3.98589 9.14843 3.88143 9.02562 3.75037C8.49935 3.22409 8.49935 2.36047 9.02562 1.83419C10.0107 0.86261 11.3601 0.255371 12.8445 0.255371C14.276 0.255371 15.649 0.824053 16.6612 1.83631C17.6735 2.84857 18.2422 4.2215 18.2422 5.65305C18.2422 7.0846 17.6735 8.45752 16.6612 9.46978C15.649 10.482 14.276 11.0507 12.8445 11.0507H2.04913ZM22.2904 13.7496C22.6483 13.7496 22.9915 13.6074 23.2446 13.3543C23.4977 13.1013 23.6398 12.758 23.6398 12.4001C23.6398 12.0423 23.4977 11.699 23.2446 11.446C22.9915 11.1929 22.6483 11.0507 22.2904 11.0507C21.9126 11.0507 21.5752 11.1992 21.3323 11.4421C21.2075 11.5672 21.0592 11.6664 20.896 11.7341C20.7327 11.8018 20.5577 11.8367 20.381 11.8367C20.2043 11.8367 20.0293 11.8018 19.866 11.7341C19.7028 11.6664 19.5545 11.5672 19.4296 11.4421C18.9169 10.9158 18.9169 10.0656 19.4296 9.53938C20.1583 8.81069 21.1704 8.35189 22.2904 8.35189C23.3641 8.35189 24.3938 8.7784 25.153 9.53759C25.9122 10.2968 26.3387 11.3265 26.3387 12.4001C26.3387 13.4738 25.9122 14.5035 25.153 15.2627C24.3938 16.0219 23.3641 16.4484 22.2904 16.4484H3.39855C3.04066 16.4484 2.69743 16.3062 2.44436 16.0532C2.1913 15.8001 2.04913 15.4569 2.04913 15.099C2.04913 14.7411 2.1913 14.3979 2.44436 14.1448C2.69743 13.8917 3.04066 13.7496 3.39855 13.7496H22.2904ZM20.941 21.8461H2.04913C1.69124 21.8461 1.34801 21.7039 1.09494 21.4508C0.841878 21.1978 0.699707 20.8545 0.699707 20.4967C0.699707 20.1388 0.841878 19.7955 1.09494 19.5425C1.34801 19.2894 1.69124 19.1472 2.04913 19.1472H20.941C22.0147 19.1472 23.0444 19.5738 23.8035 20.3329C24.5627 21.0921 24.9893 22.1218 24.9893 23.1955C24.9893 24.2692 24.5627 25.2989 23.8035 26.058C23.0444 26.8172 22.0147 27.2438 20.941 27.2438C19.821 27.2438 18.8089 26.785 18.0802 26.0563C17.5674 25.53 17.5674 24.6799 18.0802 24.1536C18.2051 24.0285 18.3534 23.9292 18.5166 23.8615C18.6798 23.7938 18.8548 23.759 19.0316 23.759C19.2083 23.759 19.3833 23.7938 19.5465 23.8615C19.7098 23.9292 19.8581 24.0285 19.9829 24.1536C20.2258 24.3965 20.5632 24.5449 20.941 24.5449C21.2989 24.5449 21.6421 24.4027 21.8952 24.1497C22.1482 23.8966 22.2904 23.5534 22.2904 23.1955C22.2904 22.8376 22.1482 22.4944 21.8952 22.2413C21.6421 21.9882 21.2989 21.8461 20.941 21.8461Z" fill="black"/>
</svg>
